<svg width="215" height="135" viewBox="0 0 215 135" fill="none" xmlns="http://www.w3.org/2000/svg">
<path d="M85 129.5L82.6 134.8H83.7L84.2 133.8H87L87.4 134.8H88.5L86.1 129.5H85ZM84.5 132.9L85.5 130.6L86.5 132.9H84.5Z" fill="white"/>
<path d="M93.1 132.7H94.5V133.6C94.1 133.9 93.7 134 93.3 134C92 134 91.5 133.1 91.5 132.2C91.5 131.1 92.2 130.2 93.3 130.2C93.8 130.2 94.3 130.4 94.7 130.7L95.3 130.1C94.8 129.6 94 129.3 93.3 129.3C91.4 129.3 90.5 130.7 90.5 132.2C90.5 133.6 91.3 134.9 93.3 134.9C94.2 134.9 94.9 134.5 95.4 133.9V131.7H93.1V132.7Z" fill="white"/>
<path d="M100.9 129H101.8L100.7 127.9H100.2L99.1 129H100L100.4 128.6L100.9 129Z" fill="white"/>
<path d="M98.3 134.9H102.3V133.9H99.3V132.7H102.2V131.8H99.3V130.6H102.3V129.6H98.3C98.3 131.3 98.3 133.1 98.3 134.9Z" fill="white"/>
<path d="M108.8 133.1L106 129.5H105.2V134.9H106.2V131.3L109 134.9H109.8V129.5H108.8V133.1Z" fill="white"/>
<path d="M115.4 134C114.1 134 113.6 133.1 113.6 132.2C113.6 131.3 114.1 130.4 115.4 130.4C115.9 130.4 116.3 130.6 116.7 130.9L117.4 130.3C116.9 129.8 116.2 129.5 115.4 129.5C113.5 129.5 112.6 130.9 112.6 132.3C112.6 133.7 113.4 135 115.4 135C116.2 135 116.9 134.7 117.4 134.2L116.7 133.5C116.4 133.9 115.9 134 115.4 134Z" fill="white"/>
<path d="M121.1 129.5H120.1V134.8H121.1V129.5Z" fill="white"/>
<path d="M126 129.5L123.6 134.8H124.7L125.2 133.8H128L128.4 134.8H129.5L127.1 129.5H126ZM125.5 132.9L126.5 130.6L127.5 132.9H125.5Z" fill="white"/>
<path d="M137.5 129.5C136.8 129.5 136.1 129.5 135.4 129.5V134.8C136.1 134.8 136.8 134.8 137.5 134.8C139.4 134.8 140.2 133.4 140.2 132.1C140.1 130.8 139.3 129.5 137.5 129.5ZM137.5 133.9H136.4V130.5H137.5C138.7 130.5 139.1 131.3 139.2 132.2C139.2 133 138.7 133.9 137.5 133.9Z" fill="white"/>
<path d="M142.9 134.9H146.9V133.9H143.9V132.7H146.8V131.8H143.9V130.6H146.9V129.6H142.9C142.9 131.3 142.9 133.1 142.9 134.9Z" fill="white"/>
<path d="M155.4 133.7L153.8 129.5H152.7L154.9 134.9H155.9L158.1 129.5H157L155.4 133.7Z" fill="white"/>
<path d="M161.6 129.5H160.6V134.8H161.6V129.5Z" fill="white"/>
<path d="M166.5 129.5L164.1 134.8H165.2L165.7 133.8H168.5L169 134.8H170.1L167.7 129.5H166.5ZM166.1 132.9L167.1 130.6L168.1 132.9H166.1Z" fill="white"/>
<path d="M174.7 132.7H176.1V133.6C175.7 133.9 175.3 134 174.9 134C173.6 134 173.1 133.1 173.1 132.2C173.1 131.1 173.8 130.2 174.9 130.2C175.4 130.2 175.9 130.4 176.3 130.7L176.9 130.1C176.4 129.6 175.6 129.3 174.9 129.3C173 129.3 172.1 130.7 172.1 132.2C172.1 133.6 172.9 134.9 174.9 134.9C175.8 134.9 176.5 134.5 177 133.9V131.7H174.7V132.7Z" fill="white"/>
<path d="M179.8 134.9H183.8V133.9H180.8V132.7H183.7V131.8H180.8V130.6H183.8V129.6H179.8C179.8 131.3 179.8 133.1 179.8 134.9Z" fill="white"/>
<path d="M190.4 133.1L187.5 129.5H186.7V134.9H187.7V131.3L190.5 134.9H191.4V129.5H190.4V133.1Z" fill="white"/>
<path d="M196.5 131.6C195.9 131.5 195.3 131.4 195.3 130.9C195.3 130.5 195.7 130.2 196.4 130.2C197 130.2 197.5 130.5 197.7 130.8L198.5 130.4C198.1 129.6 197.2 129.3 196.4 129.3C195.4 129.3 194.3 129.8 194.3 130.9C194.3 132.1 195.3 132.4 196.4 132.5C197.1 132.6 197.6 132.8 197.6 133.3C197.6 133.9 197 134.1 196.4 134.1C195.8 134.1 195.1 133.8 194.9 133.3L194.1 133.7C194.5 134.7 195.3 135 196.4 135C197.6 135 198.6 134.5 198.6 133.3C198.6 132 197.6 131.7 196.5 131.6Z" fill="white"/>
<path d="M48.1 20.2L57.6 6C57.3 5.7 56.9 5.4 56.6 5.2L47.3 19.1C47.6 19.5 47.9 19.8 48.1 20.2Z" fill="white"/>
<path d="M46.7 18.5L56 4.7C55.6 4.4 55.3 4.2 54.9 3.9L45.7 17.6C46.1 18 46.4 18.2 46.7 18.5Z" fill="white"/>
<path d="M49.1 22.6L59.2 7.6C58.9 7.3 58.6 7 58.3 6.7L48.6 21.1C48.8 21.6 49 22.1 49.1 22.6Z" fill="white"/>
<path d="M49.3 24.3C49.3 25.2 49.2 26 48.9 26.8L60.6 9.2C60.3 8.9 60.1 8.6 59.8 8.2L49.3 24C49.3 24.1 49.3 24.2 49.3 24.3Z" fill="white"/>
<path d="M45 17.3L54.2 3.5C53.8 3.3 53.4 3 53 2.8L43.7 16.7C44.2 17 44.6 17.1 45 17.3Z" fill="white"/>
<path d="M41.5 16.5C42 16.5 42.5 16.6 42.9 16.6L52.3 2.5C51.9 2.3 51.4 2.1 51 1.9L41.3 16.5C41.4 16.5 41.4 16.5 41.5 16.5Z" fill="white"/>
<path d="M40.4 16.6L50.4 1.7C47.7 0.6 44.7 0 41.5 0C28.1 0 17.2 10.9 17.2 24.3H33.8C33.7 20.3 36.7 17.1 40.4 16.6Z" fill="white"/>
<path d="M29.4 94.8L20.2 108.6C20.7 108.9 21.1 109.1 21.6 109.4L30.9 95.6C30.3 95.3 29.9 95.1 29.4 94.8Z" fill="white"/>
<path d="M31.3 95.8L22 109.6C22.5 109.8 22.9 110.1 23.4 110.3L32.7 96.3C32.3 96.2 31.8 96 31.3 95.8Z" fill="white"/>
<path d="M33.4 96.6L24 110.6C24.5 110.8 25 111 25.4 111.2L34.9 97C34.4 96.9 33.9 96.7 33.4 96.6Z" fill="white"/>
<path d="M35.5 97.2L26 111.5C26.5 111.7 27 111.9 27.4 112L37.1 97.5C36.6 97.4 36.1 97.3 35.5 97.2Z" fill="white"/>
<path d="M27.5 93.7L18.3 107.4C18.8 107.7 19.2 108 19.7 108.3L29 94.6C28.5 94.3 28 94 27.5 93.7Z" fill="white"/>
<path d="M52.3 95.3L39.6 114.3C40.1 114.3 40.6 114.3 41.1 114.3L54.7 94C53.9 94.5 53.1 94.9 52.3 95.3Z" fill="white"/>
<path d="M48.7 96.7L37 114.1C37.5 114.1 38 114.2 38.5 114.2L50.8 96C50.1 96.3 49.4 96.5 48.7 96.7Z" fill="white"/>
<path d="M16.6 73.2H0C0 87.3 7.1 99.8 18 107.2L27.2 93.5C20.8 89 16.6 81.6 16.6 73.2Z" fill="white"/>
<path d="M45.7 97.5L34.7 113.9C35.2 114 35.7 114 36.2 114.1L47.6 97.1C46.9 97.2 46.3 97.4 45.7 97.5Z" fill="white"/>
<path d="M41.3 97.9C40.9 97.9 40.6 97.9 40.2 97.9L30.1 112.9C30.6 113 31.1 113.2 31.6 113.3L42 97.9C41.7 97.9 41.5 97.9 41.3 97.9Z" fill="white"/>
<path d="M42.9 97.8L32.5 113.4C33 113.5 33.5 113.6 34 113.7L44.8 97.6C44 97.7 43.5 97.8 42.9 97.8Z" fill="white"/>
<path d="M37.8 97.6L28 112.2C28.5 112.4 29 112.5 29.4 112.7L39.4 97.8C38.9 97.8 38.4 97.7 37.8 97.6Z" fill="white"/>
<path d="M157.4 0L144.8 18.9V21.2L159 0H157.4Z" fill="white"/>
<path d="M154.9 0L144.8 15.1V17.4L156.4 0H154.9Z" fill="white"/>
<path d="M160 0L144.8 22.7V25.1L161.6 0H160Z" fill="white"/>
<path d="M152.4 0L144.8 11.3V13.5L153.8 0H152.4Z" fill="white"/>
<path d="M147.3 0L144.8 3.8V5.8L148.6 0H147.3Z" fill="white"/>
<path d="M144.8 0V1.9L146.1 0H144.8Z" fill="white"/>
<path d="M149.8 0L144.8 7.6V9.6L151.2 0H149.8Z" fill="white"/>
<path d="M162.5 0L144.8 26.5V28.9L164.1 0H162.5Z" fill="white"/>
<path d="M171.2 16.5L182.2 0H180.2L169.2 16.5H171.2Z" fill="white"/>
<path d="M166 16.5L177.1 0H175.2L164.1 16.5H166Z" fill="white"/>
<path d="M202.8 16.5V0H182.7L171.7 16.5H202.8Z" fill="white"/>
<path d="M163.4 16.5L174.5 0H172.6L161.6 16.5H163.4Z" fill="white"/>
<path d="M168.6 16.5L179.6 0H177.7L166.6 16.5H168.6Z" fill="white"/>
<path d="M167.5 97.1L158 111.3C158.4 111.5 158.9 111.7 159.4 111.8L169 97.4C168.5 97.3 168 97.2 167.5 97.1Z" fill="white"/>
<path d="M165.4 96.5L156 110.5C156.4 110.7 156.8 110.9 157.3 111.1L166.8 97C166.3 96.8 165.9 96.6 165.4 96.5Z" fill="white"/>
<path d="M169.7 97.6L160 112.1C160.5 112.3 161 112.4 161.4 112.6L171.3 97.8C170.8 97.7 170.3 97.6 169.7 97.6Z" fill="white"/>
<path d="M163.4 95.7L154.1 109.5C154.5 109.7 154.9 109.9 155.3 110.1L164.6 96.2C164.2 96 163.8 95.8 163.4 95.7Z" fill="white"/>
<path d="M161.5 94.7L152.3 108.5C152.7 108.7 153 108.9 153.4 109.1L162.6 95.3C162.3 95.1 161.9 94.9 161.5 94.7Z" fill="white"/>
<path d="M177.3 97.6L166.5 113.8C167.1 113.9 167.7 114 168.2 114.1L179.5 97.3C178.8 97.4 178 97.5 177.3 97.6Z" fill="white"/>
<path d="M173.7 97.9C173.2 97.9 172.6 97.9 172.1 97.8L162.1 112.7C162.6 112.8 163.1 113 163.6 113.1L173.8 97.8C173.8 97.9 173.7 97.9 173.7 97.9Z" fill="white"/>
<path d="M180.2 97L168.7 114.1C169.3 114.2 169.9 114.2 170.5 114.3L182.6 96.2C181.9 96.5 181.1 96.8 180.2 97Z" fill="white"/>
<path d="M183.6 95.8L171.2 114.3C171.9 114.3 172.5 114.4 173.2 114.4L186.7 94.2C185.7 94.8 184.6 95.4 183.6 95.8Z" fill="white"/>
<path d="M159.7 93.6L150.5 107.3C150.7 107.4 150.9 107.5 151.1 107.7C151.3 107.8 151.4 107.9 151.6 108L160.8 94.3C160.4 94 160.1 93.8 159.7 93.6Z" fill="white"/>
<path d="M174.6 97.9L164.3 113.4C164.8 113.5 165.4 113.6 165.9 113.7L176.6 97.7C175.9 97.8 175.3 97.8 174.6 97.9Z" fill="white"/>
<path d="M173.7 32H161.4V28.2L158.9 32H158.3L161.4 27.4V24.5L156.3 32.1H155.7L161.4 23.6V20.7L153.8 32H153.1L161.4 19.6V16.8L151.2 32H150.5L171.9 0H170.1L148.7 32H147.9L169.3 0H167.5L146.1 32H145.3L166.7 0H165L144.8 30.2V32C145.1 32.3 145.4 32.5 145.7 32.8C145.9 33 146.1 33.2 146.3 33.4C146.6 33.7 146.9 34 147.2 34.3C147.5 34.6 147.8 34.9 148.1 35.2C148.3 35.4 148.5 35.6 148.7 35.8C149 36.2 149.3 36.5 149.6 36.9C149.7 37.1 149.9 37.2 150 37.4C150.3 37.8 150.7 38.2 151 38.6C151.1 38.8 151.3 38.9 151.4 39.1C151.7 39.5 152 39.9 152.3 40.4C152.4 40.6 152.6 40.8 152.7 41C153 41.4 153.3 41.9 153.6 42.3C153.7 42.5 153.9 42.7 154 43C154.2 43.3 154.4 43.7 154.7 44C154.8 44.2 154.9 44.4 155.1 44.6C155.2 44.8 155.4 45 155.5 45.3C155.6 45.5 155.8 45.8 155.9 46C156 46.2 156.1 46.4 156.2 46.5C156.3 46.8 156.5 47 156.6 47.3C156.6 47.4 156.7 47.5 156.7 47.6C156.9 47.9 157 48.2 157.2 48.5H173.5C187.2 48.5 198.3 59.6 198.3 73.2C198.3 81.7 194 89.2 187.4 93.6L173.5 114.4C196.3 114.4 214.8 96 214.8 73.2C214.8 50.4 196.5 32 173.7 32Z" fill="white"/>
<path d="M151.2 83.6L141.1 98.6C141.3 98.9 141.5 99.1 141.8 99.4L151.7 84.6C151.6 84.3 151.4 84 151.2 83.6Z" fill="white"/>
<path d="M158 92.3L148.8 106.1C149 106.2 149.1 106.4 149.3 106.5C149.5 106.6 149.6 106.7 149.8 106.8L159 93.1C158.7 92.8 158.4 92.6 158 92.3Z" fill="white"/>
<path d="M150.7 82.3C150.6 81.9 150.4 81.6 150.3 81.2L146.7 86.6C147.1 85.3 147.5 84.1 147.8 82.7L149.8 79.7C149.7 79.3 149.6 78.9 149.5 78.5L148.3 80.4C148.5 79.5 148.6 78.5 148.7 77.5L149.2 76.7C149.1 76.3 149.1 75.8 149 75.4C149 75.4 148.9 74.1 148.9 72.8C148.8 50.1 130.3 31.8 107.6 31.8C106.8 31.8 106 31.8 105.2 31.9L120.6 8.9L106.8 0L74.4 48.5C71 44 66.8 40.3 61.9 37.5C63 35.8 63.9 34 64.6 32L61.2 37C60.8 36.8 60.5 36.6 60.1 36.4L65.5 28.3C65.6 27.6 65.7 27 65.8 26.3L59.3 36C58.9 35.8 58.6 35.7 58.2 35.5L65.8 24C65.8 23.5 65.8 22.9 65.7 22.4L57.2 35.1C56.8 34.9 56.5 34.8 56.1 34.7L65.5 20.6C65.4 20.1 65.3 19.7 65.2 19.2L55.2 34.4C54.8 34.3 54.5 34.1 54.1 34L65 17.8C64.9 17.4 64.8 17 64.6 16.5L53.1 33.7C52.7 33.6 52.4 33.5 52 33.4L64.1 15.3C63.9 14.9 63.8 14.5 63.6 14.1L50.9 33.1C50.5 33 50.2 32.9 49.8 32.9L63.1 13C62.9 12.6 62.7 12.3 62.5 11.9L48.6 32.6C48.2 32.5 47.9 32.5 47.5 32.4L61.9 11C61.7 10.7 61.4 10.3 61.2 10L46.3 32.3C45.9 32.3 45.6 32.2 45.2 32.2L46.6 30.1C45.9 30.7 45.1 31.2 44.2 31.5C44.2 31.5 43.4 31.8 42.9 31.9C42.4 31.9 42 32 41.5 32V48.5C55.1 48.6 66.1 59.6 66.1 73.1C66.1 74 66 74.7 66 74.7C65.9 75.6 65.8 76.5 65.7 77.4L66.4 76.4C66.4 76.9 66.5 77.3 66.5 77.8L65.1 80C63.7 85 60.7 89.3 56.7 92.5L42 114.4C42.5 114.4 43 114.4 43.5 114.3L66.7 79.7C66.8 80.2 66.9 80.6 66.9 81L44.7 114.2C45.2 114.2 45.7 114.1 46.2 114L67.3 82.5C67.4 82.9 67.5 83.4 67.6 83.8L47.5 113.8C48 113.7 48.5 113.6 49 113.5L68 85.1C68.1 85.5 68.3 85.9 68.4 86.3L50.5 113.1C51 113 51.5 112.9 52 112.7L68.8 87.5C69 87.9 69.1 88.3 69.3 88.7L53.6 112.2C54.1 112 54.7 111.9 55.2 111.7L69.8 89.9C70 90.3 70.2 90.7 70.4 91.1L57 111.1C57.6 110.9 58.1 110.6 58.7 110.4L71 92.3C71.2 92.7 71.4 93.1 71.6 93.4L60.9 109.4C61.5 109.1 62.1 108.7 62.7 108.4L72.1 94.3C72.3 94.7 72.6 95.1 72.8 95.4L65.3 106.7C66.1 106.2 66.8 105.6 67.5 105L73.4 96.2C73.7 96.6 73.9 96.9 74.2 97.3L71.6 101.2C72.6 100.1 73.6 98.9 74.5 97.7C82 107.8 94.1 114.3 107.6 114.3C124 114.3 138.1 104.8 144.8 91L150.7 82.3ZM107.6 97.9C93.9 97.9 82.8 86.8 82.8 73.2C82.8 59.6 93.9 48.5 107.6 48.5C121.3 48.5 132.4 59.6 132.4 73.2C132.4 86.8 121.3 97.9 107.6 97.9Z" fill="white"/>
<path d="M156.5 90.9L147.2 104.8C147.5 105 147.8 105.3 148.1 105.5L157.3 91.7C157 91.5 156.7 91.2 156.5 90.9Z" fill="white"/>
<path d="M155 89.4L145.6 103.4C145.9 103.7 146.2 103.9 146.4 104.2L155.7 90.3C155.5 89.9 155.2 89.6 155 89.4Z" fill="white"/>
<path d="M153.6 87.6L144.1 101.9C144.4 102.2 144.6 102.4 144.9 102.7L154.4 88.6C154 88.2 153.8 87.9 153.6 87.6Z" fill="white"/>
<path d="M152.3 85.7L142.5 100.3C142.7 100.6 143 100.8 143.2 101.1L152.8 86.7C152.7 86.4 152.5 86 152.3 85.7Z" fill="white"/>
</svg>
